<svg aria-hidden="true" style="position: absolute; width: 0; height: 0; overflow: hidden;" version="1.1" xmlns="http://www.w3.org/2000/svg" xmlns:xlink="http://www.w3.org/1999/xlink">
<defs>
<symbol id="icon-Group" viewBox="0 0 32 32">
<path fill="#828282" style="fill: var(--color1, #828282)" d="M12.915 14.928s3.027-0.226 3.027-3.776c0-3.552-2.477-5.285-5.616-5.285h-10.326v19.845h10.326s6.304 0.2 6.304-5.856c0 0 0.275-4.928-3.715-4.928zM4.55 9.394h5.776s1.405 0 1.405 2.064-0.826 2.363-1.762 2.363h-5.419v-4.427zM10.061 22.184h-5.51v-5.302h5.776s2.093-0.027 2.093 2.726c0 2.294-1.531 2.555-2.358 2.578zM28.958 7.035h-8.19v2.445h8.189v-2.445zM25.038 10.917c-7.632 0-7.626 7.624-7.626 7.624s-0.522 7.587 7.626 7.587c0 0 6.792 0.387 6.792-5.278h-3.494s0.117 2.134-3.182 2.134c0 0-3.491 0.234-3.491-3.453h10.282s1.125-8.614-6.907-8.614zM28.142 16.882h-6.518s0.426-3.059 3.491-3.059c3.067 0 3.027 3.059 3.027 3.059z"></path>
</symbol>
<symbol id="icon-dribbble" viewBox="0 0 32 32">
<path fill="#828282" style="fill: var(--color1, #828282)" d="M16 32c-8.816 0-16-7.184-16-16s7.184-16 16-16 16 7.184 16 16-7.184 16-16 16zM29.494 18.187c-0.467-0.146-4.229-1.27-8.515-0.584 1.787 4.912 2.515 8.912 2.656 9.746 3.068-2.090 5.221-5.328 5.848-9.082l0.011-0.080zM21.339 28.598c-0.203-1.197-1-5.374-2.917-10.358l-0.088 0.026c-7.72 2.688-10.48 8.037-10.72 8.536 2.279 1.799 5.192 2.885 8.359 2.885 0.009 0 0.019 0 0.028-0h-0.001c1.891 0 3.693-0.384 5.333-1.083l0.006-0.005zM5.85 25.162c0.307-0.536 4.056-6.741 11.109-9.022 0.176-0.061 0.358-0.112 0.536-0.16-0.344-0.781-0.72-1.557-1.109-2.317-6.824 2.035-13.443 1.952-14.042 1.936l-0.005 0.418c0 3.51 1.328 6.72 3.51 9.141v0.005zM2.621 13.219c0.614 0.011 6.243 0.035 12.634-1.661-1.765-3.096-3.44-5.677-5.243-8.161l0.176 0.254c-3.836 1.84-6.642 5.302-7.551 9.473l-0.017 0.091v0.005zM12.803 2.734c0.374 0.512 2.859 3.886 5.093 8 4.859-1.816 6.922-4.584 7.168-4.931-2.389-2.14-5.561-3.448-9.039-3.448-0.009 0-0.017 0-0.026 0h0.001c-0.008-0-0.017-0-0.027-0-1.125 0-2.218 0.138-3.263 0.399l0.093-0.020zM26.579 7.379c-0.288 0.386-2.579 3.323-7.632 5.386 0.318 0.656 0.626 1.312 0.907 1.984 0.109 0.24 0.197 0.48 0.291 0.704 4.549-0.573 9.069 0.349 9.52 0.443-0.021-3.245-1.179-6.215-3.097-8.535l0.018 0.023-0.008-0.005z"></path>
</symbol>
<symbol id="icon-instagram" viewBox="0 0 32 32">
<path fill="#828282" style="fill: var(--color1, #828282)" d="M16 12c-2.209 0-4 1.791-4 4s1.791 4 4 4v0c2.209 0 4-1.791 4-4s-1.791-4-4-4v0zM16 9.333c3.682 0 6.667 2.985 6.667 6.667s-2.985 6.667-6.667 6.667v0c-3.682 0-6.667-2.985-6.667-6.667s2.985-6.667 6.667-6.667v0zM24.667 9c0 0.921-0.746 1.667-1.667 1.667s-1.667-0.746-1.667-1.667v0c0-0.921 0.746-1.667 1.667-1.667s1.667 0.746 1.667 1.667v0zM16 5.333c-3.299 0-3.837 0.010-5.371 0.078-1.046 0.048-1.747 0.189-2.398 0.442-0.578 0.224-0.995 0.493-1.44 0.938-0.416 0.403-0.738 0.896-0.938 1.44-0.254 0.654-0.394 1.354-0.442 2.398-0.070 1.472-0.078 1.986-0.078 5.371 0 3.299 0.010 3.837 0.078 5.373 0.048 1.043 0.189 1.746 0.442 2.395 0.226 0.581 0.493 0.997 0.936 1.44 0.448 0.448 0.866 0.717 1.44 0.938 0.658 0.256 1.36 0.395 2.4 0.443 1.472 0.070 1.986 0.078 5.371 0.078 3.299 0 3.837-0.010 5.373-0.078 1.042-0.048 1.744-0.189 2.395-0.44 0.576-0.226 0.997-0.494 1.44-0.936 0.448-0.45 0.717-0.867 0.939-1.44 0.253-0.658 0.394-1.36 0.442-2.4 0.070-1.472 0.078-1.987 0.078-5.373 0-3.299-0.010-3.837-0.078-5.371-0.048-1.043-0.189-1.747-0.442-2.398-0.212-0.565-0.532-1.046-0.937-1.439l-0.001-0.001c-0.394-0.407-0.875-0.727-1.413-0.929l-0.027-0.009c-0.653-0.254-1.355-0.394-2.397-0.442-1.472-0.070-1.987-0.078-5.373-0.078zM16 2.667c3.622 0 4.075 0.013 5.496 0.080 1.421 0.066 2.387 0.288 3.237 0.619 0.88 0.339 1.622 0.798 2.363 1.538 0.678 0.667 1.203 1.472 1.536 2.363 0.331 0.848 0.555 1.818 0.621 3.237 0.064 1.421 0.080 1.872 0.080 5.496 0 3.622-0.013 4.075-0.080 5.496-0.066 1.421-0.29 2.387-0.619 3.237-0.352 0.925-0.875 1.713-1.535 2.362l-0.001 0.001c-0.669 0.678-1.474 1.203-2.365 1.536-0.848 0.331-1.816 0.555-3.237 0.621-1.421 0.064-1.872 0.080-5.496 0.080-3.622 0-4.075-0.013-5.496-0.080-1.419-0.066-2.387-0.29-3.237-0.619-0.925-0.352-1.713-0.875-2.362-1.535l-0.001-0.001c-0.661-0.651-1.183-1.439-1.521-2.32l-0.015-0.045c-0.331-0.848-0.555-1.816-0.621-3.237-0.064-1.421-0.080-1.872-0.080-5.496 0-3.622 0.013-4.075 0.080-5.496 0.066-1.421 0.288-2.387 0.619-3.237 0.334-0.891 0.859-1.696 1.538-2.363 0.65-0.661 1.438-1.183 2.319-1.521l0.045-0.015c0.85-0.331 1.816-0.555 3.237-0.621 1.421-0.064 1.872-0.080 5.496-0.080z"></path>
</symbol>
<symbol id="icon-linkedin" viewBox="0 0 32 32">
<path fill="#828282" style="fill: var(--color1, #828282)" d="M7.448 10.294h-6.424c-0.285 0.001-0.515 0.232-0.515 0.517 0 0 0 0 0 0v0 20.637c0 0.285 0.23 0.517 0.515 0.517h6.424c0.285 0 0.517-0.231 0.517-0.517v0-20.637c0-0.285-0.231-0.517-0.517-0.517v0zM4.24 0.035c-2.339 0.001-4.235 1.895-4.24 4.233v0c0.003 2.34 1.9 4.236 4.24 4.237h0c2.338-0.003 4.233-1.898 4.235-4.237v-0c-0.004-2.338-1.899-4.232-4.237-4.234h-0zM23.789 9.782c-2.581 0-4.488 1.109-5.645 2.368v-1.339c0 0 0 0 0 0 0-0.285-0.23-0.516-0.515-0.517h-6.152c-0.285 0-0.517 0.231-0.517 0.517v0 20.637c0 0.285 0.23 0.517 0.517 0.517h6.41c0 0 0 0 0 0 0.285 0 0.515-0.231 0.515-0.515 0-0.001 0-0.001 0-0.002v0-10.211c0-3.44 0.936-4.781 3.334-4.781 2.611 0 2.819 2.149 2.819 4.96v10.032c0 0.285 0.232 0.517 0.517 0.517h6.411c0.285 0 0.517-0.231 0.517-0.517v0-11.32c0-5.117-0.976-10.346-8.211-10.346z"></path>
</symbol>
<symbol id="icon-twitter" viewBox="0 0 32 32">
<path fill="#828282" style="fill: var(--color1, #828282)" d="M31.275 5.923c-0.504 0.224-1.021 0.411-1.549 0.565 0.626-0.707 1.102-1.539 1.392-2.45 0.015-0.046 0.024-0.1 0.024-0.155 0-0.285-0.231-0.517-0.517-0.517-0.096 0-0.186 0.026-0.263 0.072l0.002-0.001c-1.12 0.666-2.331 1.144-3.6 1.424-1.24-1.21-2.937-1.957-4.807-1.96h-0.001c-3.795 0.003-6.871 3.081-6.871 6.877 0 0.31 0.020 0.615 0.060 0.913l-0.004-0.035c-4.887-0.447-9.143-2.833-12.046-6.372l-0.025-0.031c-0.095-0.117-0.239-0.191-0.4-0.191-0.19 0-0.356 0.103-0.445 0.255l-0.001 0.002c-0.608 1.043-0.93 2.238-0.93 3.454 0 0.003 0 0.006 0 0.010 0 1.699 0.617 3.254 1.64 4.453l-0.008-0.010c-0.356-0.125-0.66-0.264-0.947-0.426l0.029 0.015c-0.073-0.042-0.16-0.066-0.253-0.066-0.281 0-0.51 0.226-0.515 0.506v0.092c0 2.47 1.33 4.696 3.363 5.907-0.206-0.020-0.385-0.047-0.561-0.081l0.037 0.006c-0.029-0.006-0.063-0.009-0.097-0.009-0.285 0-0.515 0.231-0.515 0.515 0 0.056 0.009 0.111 0.026 0.162l-0.001-0.004c0.756 2.31 2.641 4.053 4.986 4.596l0.046 0.009c-1.831 1.164-4.061 1.854-6.452 1.854-0.015 0-0.031-0-0.046-0h0.002c-0.488 0-0.976-0.029-1.456-0.086-0.017-0.002-0.038-0.003-0.058-0.003-0.285 0-0.517 0.231-0.517 0.517 0 0.181 0.093 0.34 0.234 0.432l0.002 0.001c2.829 1.841 6.291 2.936 10.009 2.936 0.003 0 0.006 0 0.009 0h-0.001c6.995 0 11.37-3.298 13.808-6.064 3.040-3.45 4.786-8.016 4.786-12.528 0-0.189-0.003-0.379-0.010-0.57 1.202-0.912 2.221-1.988 3.043-3.207l0.030-0.047c0.054-0.080 0.087-0.18 0.087-0.286 0-0.285-0.231-0.517-0.517-0.517-0.075 0-0.146 0.016-0.21 0.044l0.003-0.001z"></path>
</symbol>
</defs>
</svg>
